<svg width="43" height="29" viewBox="0 0 43 29" fill="none" xmlns="http://www.w3.org/2000/svg">
<path d="M19.8501 28.0862C19.7513 28.0862 19.652 28.0702 19.5559 28.0376L6.94299 23.7485C6.57257 23.6225 6.32349 23.2746 6.32349 22.8834V10.0076C6.32349 9.7139 6.46466 9.43805 6.70286 9.26636C6.94116 9.09467 7.24744 9.04789 7.52613 9.14072L20.1391 13.345C20.5121 13.4694 20.7639 13.8186 20.7639 14.2119V27.1725C20.7639 27.4672 20.6217 27.7438 20.3821 27.9154C20.225 28.028 20.0385 28.0862 19.8501 28.0862ZM8.15093 22.229L18.9364 25.8968V14.8705L8.15093 11.2754V22.229Z" fill="#1D3557"/>
<path d="M19.8503 28.0863C19.6618 28.0863 19.4753 28.028 19.3182 27.9154C19.0786 27.7438 18.9365 27.4672 18.9365 27.1725V14.212C18.9365 13.8188 19.1882 13.4696 19.5613 13.3452L32.1743 9.14087C32.4529 9.04803 32.7592 9.09472 32.9974 9.2665C33.2357 9.43819 33.3769 9.71404 33.3769 10.0077V22.8834C33.3769 23.2747 33.1277 23.6225 32.7574 23.7486L20.1445 28.0377C20.0484 28.0703 19.9491 28.0863 19.8503 28.0863ZM20.764 14.8705V25.8967L31.5495 22.2289V11.2754L20.764 14.8705Z" fill="#1D3557"/>
<path d="M19.8503 15.1257C19.7527 15.1257 19.6551 15.1101 19.5613 15.0789L0.641894 8.77234C0.268729 8.64798 0.0170898 8.29875 0.0170898 7.90549C0.0170898 7.51222 0.268729 7.16309 0.641894 7.03864L19.5613 0.732123C19.7489 0.669533 19.9517 0.669533 20.1392 0.732123L39.0586 7.03864C39.4318 7.163 39.6834 7.51222 39.6834 7.90549C39.6834 8.29875 39.4318 8.64789 39.0586 8.77234L20.1392 15.0789C20.0453 15.1101 19.9478 15.1257 19.8503 15.1257ZM3.82028 7.90549L19.8503 13.2488L35.8803 7.90549L19.8503 2.56222L3.82028 7.90549Z" fill="#1D3557"/>
<path d="M38.7694 23.613C38.2649 23.613 37.8557 23.2039 37.8557 22.6993V7.90542C37.8557 7.40077 38.2649 6.9917 38.7694 6.9917C39.274 6.9917 39.6832 7.40077 39.6832 7.90542V22.6993C39.6832 23.204 39.2741 23.613 38.7694 23.613Z" fill="#1D3557"/>
<path d="M38.7693 28.9999C36.9615 28.9999 35.4907 27.5291 35.4907 25.7212C35.4907 23.9133 36.9615 22.4425 38.7693 22.4425C40.5772 22.4425 42.0481 23.9133 42.0481 25.7212C42.0481 27.5291 40.5772 28.9999 38.7693 28.9999ZM38.7693 24.27C37.9692 24.27 37.3182 24.9211 37.3182 25.7213C37.3182 26.5215 37.9692 27.1726 38.7693 27.1726C39.5696 27.1726 40.2206 26.5215 40.2206 25.7213C40.2206 24.9211 39.5696 24.27 38.7693 24.27Z" fill="#1D3557"/>
</svg>
