<svg width="30" height="29" viewBox="0 0 30 29" fill="none" xmlns="http://www.w3.org/2000/svg">
<path d="M25.9667 14.5V28H4.3667V14.5" stroke="#1D3557" stroke-width="1.5" stroke-linecap="round" stroke-linejoin="round"/>
<path d="M28.6665 7.75H1.6665V14.5H28.6665V7.75Z" stroke="#1D3557" stroke-width="1.5" stroke-linecap="round" stroke-linejoin="round"/>
<path d="M15.1665 28V7.75" stroke="#1D3557" stroke-width="1.5" stroke-linecap="round" stroke-linejoin="round"/>
<path d="M15.1665 7.75H9.09155C8.19645 7.75 7.338 7.39442 6.70507 6.76148C6.07213 6.12855 5.71655 5.2701 5.71655 4.375C5.71655 3.47989 6.07213 2.62145 6.70507 1.98851C7.338 1.35558 8.19645 1 9.09155 1C13.8165 1 15.1665 7.75 15.1665 7.75Z" stroke="#1D3557" stroke-width="1.5" stroke-linecap="round" stroke-linejoin="round"/>
<path d="M15.1665 7.75H21.2415C22.1366 7.75 22.9951 7.39442 23.628 6.76148C24.2609 6.12855 24.6165 5.2701 24.6165 4.375C24.6165 3.47989 24.2609 2.62145 23.628 1.98851C22.9951 1.35558 22.1366 1 21.2415 1C16.5165 1 15.1665 7.75 15.1665 7.75Z" stroke="#1D3557" stroke-width="1.5" stroke-linecap="round" stroke-linejoin="round"/>
</svg>
