<svg width="98" height="51" viewBox="0 0 98 51" fill="none" xmlns="http://www.w3.org/2000/svg">
<path d="M19.944 18.18C19.944 19.428 19.752 20.628 19.368 21.78C18.984 22.932 18.42 23.952 17.676 24.84C16.956 25.704 16.068 26.4 15.012 26.928C13.956 27.456 12.756 27.72 11.412 27.72C10.308 27.72 9.264 27.504 8.28 27.072C7.296 26.616 6.528 26.004 5.976 25.236H5.904V35.856H0V9.288H5.616V11.484H5.724C6.276 10.764 7.032 10.14 7.992 9.612C8.976 9.06 10.128 8.784 11.448 8.784C12.744 8.784 13.92 9.036 14.976 9.54C16.032 10.044 16.92 10.728 17.64 11.592C18.384 12.456 18.948 13.464 19.332 14.616C19.74 15.744 19.944 16.932 19.944 18.18ZM14.22 18.18C14.22 17.604 14.124 17.04 13.932 16.488C13.764 15.936 13.5 15.456 13.14 15.048C12.804 14.616 12.372 14.268 11.844 14.004C11.316 13.74 10.704 13.608 10.008 13.608C9.336 13.608 8.736 13.74 8.208 14.004C7.68 14.268 7.224 14.616 6.84 15.048C6.48 15.48 6.192 15.972 5.976 16.524C5.784 17.076 5.688 17.64 5.688 18.216C5.688 18.792 5.784 19.356 5.976 19.908C6.192 20.46 6.48 20.952 6.84 21.384C7.224 21.816 7.68 22.164 8.208 22.428C8.736 22.692 9.336 22.824 10.008 22.824C10.704 22.824 11.316 22.692 11.844 22.428C12.372 22.164 12.804 21.816 13.14 21.384C13.5 20.952 13.764 20.46 13.932 19.908C14.124 19.332 14.22 18.756 14.22 18.18Z" fill="#1D3557"/>
<path d="M34.2882 14.112C34.0242 14.04 33.7602 13.992 33.4962 13.968C33.2562 13.944 33.0162 13.932 32.7762 13.932C31.9842 13.932 31.3122 14.076 30.7602 14.364C30.2322 14.652 29.8002 15 29.4642 15.408C29.1522 15.816 28.9242 16.26 28.7802 16.74C28.6362 17.22 28.5642 17.64 28.5642 18V27.216H22.6602V9.288H28.3482V11.88H28.4202C28.8762 10.968 29.5242 10.224 30.3642 9.648C31.2042 9.072 32.1762 8.784 33.2802 8.784C33.5202 8.784 33.7482 8.796 33.9642 8.82C34.2042 8.844 34.3962 8.88 34.5402 8.928L34.2882 14.112Z" fill="#1D3557"/>
<path d="M54.3088 18.18C54.3088 19.644 54.0448 20.976 53.5168 22.176C52.9888 23.352 52.2688 24.36 51.3568 25.2C50.4448 26.016 49.3888 26.652 48.1888 27.108C46.9888 27.564 45.7048 27.792 44.3368 27.792C42.9928 27.792 41.7088 27.564 40.4848 27.108C39.2848 26.652 38.2288 26.016 37.3168 25.2C36.4288 24.36 35.7208 23.352 35.1928 22.176C34.6648 20.976 34.4008 19.644 34.4008 18.18C34.4008 16.716 34.6648 15.396 35.1928 14.22C35.7208 13.044 36.4288 12.048 37.3168 11.232C38.2288 10.416 39.2848 9.792 40.4848 9.36C41.7088 8.928 42.9928 8.712 44.3368 8.712C45.7048 8.712 46.9888 8.928 48.1888 9.36C49.3888 9.792 50.4448 10.416 51.3568 11.232C52.2688 12.048 52.9888 13.044 53.5168 14.22C54.0448 15.396 54.3088 16.716 54.3088 18.18ZM48.6208 18.18C48.6208 17.604 48.5248 17.04 48.3328 16.488C48.1408 15.936 47.8648 15.456 47.5048 15.048C47.1448 14.616 46.7008 14.268 46.1728 14.004C45.6448 13.74 45.0328 13.608 44.3368 13.608C43.6408 13.608 43.0288 13.74 42.5008 14.004C41.9728 14.268 41.5288 14.616 41.1688 15.048C40.8328 15.456 40.5688 15.936 40.3768 16.488C40.2088 17.04 40.1248 17.604 40.1248 18.18C40.1248 18.756 40.2088 19.32 40.3768 19.872C40.5688 20.424 40.8448 20.928 41.2048 21.384C41.5648 21.816 42.0088 22.164 42.5368 22.428C43.0648 22.692 43.6768 22.824 44.3728 22.824C45.0688 22.824 45.6808 22.692 46.2088 22.428C46.7368 22.164 47.1808 21.816 47.5408 21.384C47.9008 20.928 48.1648 20.424 48.3328 19.872C48.5248 19.32 48.6208 18.756 48.6208 18.18Z" fill="#1D3557"/>
<path d="M77.0269 18.18C77.0269 19.428 76.8349 20.628 76.4509 21.78C76.0669 22.932 75.5029 23.952 74.7589 24.84C74.0389 25.704 73.1509 26.4 72.0949 26.928C71.0389 27.456 69.8389 27.72 68.4949 27.72C67.2949 27.72 66.1549 27.48 65.0749 27C64.0189 26.496 63.2029 25.788 62.6269 24.876H62.5549V27.216H57.1189V0H63.0229V11.196H63.0949C63.5989 10.596 64.3069 10.044 65.2189 9.54C66.1309 9.036 67.2469 8.784 68.5669 8.784C69.8629 8.784 71.0269 9.036 72.0589 9.54C73.1149 10.044 74.0029 10.728 74.7229 11.592C75.4669 12.456 76.0309 13.464 76.4149 14.616C76.8229 15.744 77.0269 16.932 77.0269 18.18ZM71.3389 18.18C71.3389 17.604 71.2429 17.04 71.0509 16.488C70.8829 15.936 70.6189 15.456 70.2589 15.048C69.8989 14.616 69.4549 14.268 68.9269 14.004C68.3989 13.74 67.7869 13.608 67.0909 13.608C66.4189 13.608 65.8189 13.74 65.2909 14.004C64.7629 14.268 64.3069 14.616 63.9229 15.048C63.5629 15.48 63.2749 15.972 63.0589 16.524C62.8669 17.076 62.7709 17.64 62.7709 18.216C62.7709 18.792 62.8669 19.356 63.0589 19.908C63.2749 20.46 63.5629 20.952 63.9229 21.384C64.3069 21.816 64.7629 22.164 65.2909 22.428C65.8189 22.692 66.4189 22.824 67.0909 22.824C67.7869 22.824 68.3989 22.692 68.9269 22.428C69.4549 22.164 69.8989 21.816 70.2589 21.384C70.6189 20.952 70.8829 20.46 71.0509 19.908C71.2429 19.332 71.3389 18.756 71.3389 18.18Z" fill="#1D3557"/>
<path d="M92.1253 16.2C92.1253 15.264 91.8253 14.46 91.2253 13.788C90.6493 13.116 89.7733 12.78 88.5973 12.78C88.0213 12.78 87.4933 12.876 87.0133 13.068C86.5333 13.236 86.1133 13.476 85.7533 13.788C85.3933 14.1 85.1053 14.472 84.8893 14.904C84.6733 15.312 84.5533 15.744 84.5293 16.2H92.1253ZM97.5613 18.468C97.5613 18.708 97.5613 18.948 97.5613 19.188C97.5613 19.428 97.5493 19.656 97.5253 19.872H84.5293C84.5773 20.376 84.7213 20.832 84.9613 21.24C85.2253 21.648 85.5493 22.008 85.9333 22.32C86.3413 22.608 86.7853 22.836 87.2653 23.004C87.7693 23.172 88.2853 23.256 88.8133 23.256C89.7493 23.256 90.5413 23.088 91.1893 22.752C91.8373 22.392 92.3653 21.936 92.7733 21.384L96.8773 23.976C96.0373 25.2 94.9213 26.148 93.5293 26.82C92.1613 27.468 90.5653 27.792 88.7413 27.792C87.3973 27.792 86.1253 27.588 84.9253 27.18C83.7253 26.748 82.6693 26.136 81.7573 25.344C80.8693 24.528 80.1613 23.532 79.6333 22.356C79.1293 21.18 78.8773 19.836 78.8773 18.324C78.8773 16.86 79.1293 15.54 79.6333 14.364C80.1373 13.164 80.8213 12.156 81.6853 11.34C82.5493 10.5 83.5693 9.852 84.7453 9.396C85.9213 8.94 87.1933 8.712 88.5613 8.712C89.8813 8.712 91.0933 8.94 92.1973 9.396C93.3013 9.828 94.2493 10.464 95.0413 11.304C95.8333 12.144 96.4453 13.164 96.8773 14.364C97.3333 15.564 97.5613 16.932 97.5613 18.468Z" fill="#1D3557"/>
<path d="M27.3611 36.242V42.416C27.3611 43.284 27.5711 43.928 27.9911 44.348C28.4204 44.768 29.0131 44.978 29.7691 44.978C30.5158 44.978 31.0991 44.768 31.5191 44.348C31.9484 43.928 32.1631 43.284 32.1631 42.416V36.242H33.4371V42.402C33.4371 43.214 33.2738 43.9 32.9471 44.46C32.6204 45.0107 32.1771 45.4213 31.6171 45.692C31.0664 45.9627 30.4458 46.098 29.7551 46.098C29.0644 46.098 28.4391 45.9627 27.8791 45.692C27.3284 45.4213 26.8898 45.0107 26.5631 44.46C26.2458 43.9 26.0871 43.214 26.0871 42.402V36.242H27.3611ZM47.8264 36.242L44.9984 46H43.5704L41.3024 38.146L38.9504 46L37.5364 46.014L34.8064 36.242H36.1644L38.2924 44.516L40.6444 36.242H42.0724L44.3124 44.488L46.4544 36.242H47.8264ZM48.7446 42.136C48.7446 41.352 48.9032 40.666 49.2206 40.078C49.5379 39.4807 49.9719 39.0187 50.5226 38.692C51.0826 38.3653 51.7032 38.202 52.3846 38.202C53.0566 38.202 53.6399 38.3467 54.1346 38.636C54.6292 38.9253 54.9979 39.2893 55.2406 39.728V38.328H56.5286V46H55.2406V44.572C54.9886 45.02 54.6106 45.3933 54.1066 45.692C53.6119 45.9813 53.0332 46.126 52.3706 46.126C51.6892 46.126 51.0732 45.958 50.5226 45.622C49.9719 45.286 49.5379 44.8147 49.2206 44.208C48.9032 43.6013 48.7446 42.9107 48.7446 42.136ZM55.2406 42.15C55.2406 41.5713 55.1239 41.0673 54.8906 40.638C54.6572 40.2087 54.3399 39.882 53.9386 39.658C53.5466 39.4247 53.1126 39.308 52.6366 39.308C52.1606 39.308 51.7266 39.42 51.3346 39.644C50.9426 39.868 50.6299 40.1947 50.3966 40.624C50.1632 41.0533 50.0466 41.5573 50.0466 42.136C50.0466 42.724 50.1632 43.2373 50.3966 43.676C50.6299 44.1053 50.9426 44.4367 51.3346 44.67C51.7266 44.894 52.1606 45.006 52.6366 45.006C53.1126 45.006 53.5466 44.894 53.9386 44.67C54.3399 44.4367 54.6572 44.1053 54.8906 43.676C55.1239 43.2373 55.2406 42.7287 55.2406 42.15ZM60.2355 39.378V43.9C60.2355 44.2733 60.3148 44.5393 60.4735 44.698C60.6322 44.8473 60.9075 44.922 61.2995 44.922H62.2375V46H61.0895C60.3802 46 59.8482 45.8367 59.4935 45.51C59.1388 45.1833 58.9615 44.6467 58.9615 43.9V39.378H57.9675V38.328H58.9615V36.396H60.2355V38.328H62.2375V39.378H60.2355ZM70.7811 41.87C70.7811 42.1127 70.7671 42.3693 70.7391 42.64H64.6071C64.6538 43.396 64.9105 43.9887 65.3771 44.418C65.8531 44.838 66.4271 45.048 67.0991 45.048C67.6498 45.048 68.1071 44.922 68.4711 44.67C68.8445 44.4087 69.1058 44.0633 69.2551 43.634H70.6271C70.4218 44.3713 70.0111 44.9733 69.3951 45.44C68.7791 45.8973 68.0138 46.126 67.0991 46.126C66.3711 46.126 65.7178 45.9627 65.1391 45.636C64.5698 45.3093 64.1218 44.8473 63.7951 44.25C63.4685 43.6433 63.3051 42.9433 63.3051 42.15C63.3051 41.3567 63.4638 40.6613 63.7811 40.064C64.0985 39.4667 64.5418 39.0093 65.1111 38.692C65.6898 38.3653 66.3525 38.202 67.0991 38.202C67.8271 38.202 68.4711 38.3607 69.0311 38.678C69.5911 38.9953 70.0205 39.434 70.3191 39.994C70.6271 40.5447 70.7811 41.17 70.7811 41.87ZM69.4651 41.604C69.4651 41.1187 69.3578 40.7033 69.1431 40.358C68.9285 40.0033 68.6345 39.7373 68.2611 39.56C67.8971 39.3733 67.4911 39.28 67.0431 39.28C66.3991 39.28 65.8485 39.4853 65.3911 39.896C64.9431 40.3067 64.6865 40.876 64.6211 41.604H69.4651ZM73.7368 39.574C73.9608 39.1353 74.2781 38.7947 74.6888 38.552C75.1088 38.3093 75.6174 38.188 76.2148 38.188V39.504H75.8788C74.4508 39.504 73.7368 40.2787 73.7368 41.828V46H72.4628V38.328H73.7368V39.574ZM78.9594 35.64V46H77.6854V35.64H78.9594ZM84.4767 46.126C83.7581 46.126 83.1047 45.9627 82.5167 45.636C81.9381 45.3093 81.4807 44.8473 81.1447 44.25C80.8181 43.6433 80.6547 42.9433 80.6547 42.15C80.6547 41.366 80.8227 40.6753 81.1587 40.078C81.5041 39.4713 81.9707 39.0093 82.5587 38.692C83.1467 38.3653 83.8047 38.202 84.5327 38.202C85.2607 38.202 85.9187 38.3653 86.5067 38.692C87.0947 39.0093 87.5567 39.4667 87.8927 40.064C88.2381 40.6613 88.4107 41.3567 88.4107 42.15C88.4107 42.9433 88.2334 43.6433 87.8787 44.25C87.5334 44.8473 87.0621 45.3093 86.4647 45.636C85.8674 45.9627 85.2047 46.126 84.4767 46.126ZM84.4767 45.006C84.9341 45.006 85.3634 44.8987 85.7647 44.684C86.1661 44.4693 86.4881 44.1473 86.7307 43.718C86.9827 43.2887 87.1087 42.766 87.1087 42.15C87.1087 41.534 86.9874 41.0113 86.7447 40.582C86.5021 40.1527 86.1847 39.8353 85.7927 39.63C85.4007 39.4153 84.9761 39.308 84.5187 39.308C84.0521 39.308 83.6227 39.4153 83.2307 39.63C82.8481 39.8353 82.5401 40.1527 82.3067 40.582C82.0734 41.0113 81.9567 41.534 81.9567 42.15C81.9567 42.7753 82.0687 43.3027 82.2927 43.732C82.5261 44.1613 82.8341 44.4833 83.2167 44.698C83.5994 44.9033 84.0194 45.006 84.4767 45.006ZM93.4318 46.126C92.7131 46.126 92.0598 45.9627 91.4718 45.636C90.8931 45.3093 90.4358 44.8473 90.0998 44.25C89.7731 43.6433 89.6098 42.9433 89.6098 42.15C89.6098 41.366 89.7778 40.6753 90.1138 40.078C90.4591 39.4713 90.9258 39.0093 91.5138 38.692C92.1018 38.3653 92.7598 38.202 93.4878 38.202C94.2158 38.202 94.8738 38.3653 95.4618 38.692C96.0498 39.0093 96.5118 39.4667 96.8478 40.064C97.1931 40.6613 97.3658 41.3567 97.3658 42.15C97.3658 42.9433 97.1885 43.6433 96.8338 44.25C96.4885 44.8473 96.0171 45.3093 95.4198 45.636C94.8225 45.9627 94.1598 46.126 93.4318 46.126ZM93.4318 45.006C93.8891 45.006 94.3185 44.8987 94.7198 44.684C95.1211 44.4693 95.4431 44.1473 95.6858 43.718C95.9378 43.2887 96.0638 42.766 96.0638 42.15C96.0638 41.534 95.9425 41.0113 95.6998 40.582C95.4571 40.1527 95.1398 39.8353 94.7478 39.63C94.3558 39.4153 93.9311 39.308 93.4738 39.308C93.0071 39.308 92.5778 39.4153 92.1858 39.63C91.8031 39.8353 91.4951 40.1527 91.2618 40.582C91.0285 41.0113 90.9118 41.534 90.9118 42.15C90.9118 42.7753 91.0238 43.3027 91.2478 43.732C91.4811 44.1613 91.7891 44.4833 92.1718 44.698C92.5545 44.9033 92.9745 45.006 93.4318 45.006Z" fill="black"/>
</svg>
